PathFileType  4	(X/Y/Z) C:\Users\antoi\Documents\MyRepositories\mobilecap\ResultsAnalysis
DataRate	CameraRate	NumFrames	NumMarkers	Units	OrigDataRate	OrigDataStartFrame	OrigNumFrames
100.0	100.0	4	51	mm	100.0	706	1411
Frame#	Time	r_knee			r_shank_antsup			r_ankle			r_calc			r_5meta			r_toe			L_knee			L_shank_antsup			L_ankle			L_calc			L_5meta			L_toe			r_sh2			r_sh3			r_sh4			L_sh2			L_sh3			r_thigh1			r_thigh2			r_thigh3			r_thigh4			r_thigh5			L_thigh1			L_thigh2			L_thigh3			L_thigh4			r.ASIS			r.PSIS			L.ASIS			L.PSIS			C7			R_Shoulder			L_Shoulder			R_Sternum			L_Sternum			R_humerus			R_elbow_med			R_elbow_lat			R_forearm			R_wrist_radius			R_wrist_ulna			L_humerus			L_elbow_med			L_elbow_lat			L_forearm			L_wrist_radius			L_wrist_ulna			R_HJC			L_HJC			R_HJC_reg			L_HJC_reg			
		X1	Y1	Z1	X2	Y2	Z2	X3	Y3	Z3	X4	Y4	Z4	X5	Y5	Z5	X6	Y6	Z6	X7	Y7	Z7	X8	Y8	Z8	X9	Y9	Z9	X10	Y10	Z10	X11	Y11	Z11	X12	Y12	Z12	X13	Y13	Z13	X14	Y14	Z14	X15	Y15	Z15	X16	Y16	Z16	X17	Y17	Z17	X18	Y18	Z18	X19	Y19	Z19	X20	Y20	Z20	X21	Y21	Z21	X22	Y22	Z22	X23	Y23	Z23	X24	Y24	Z24	X25	Y25	Z25	X26	Y26	Z26	X27	Y27	Z27	X28	Y28	Z28	X29	Y29	Z29	X30	Y30	Z30	X31	Y31	Z31	X32	Y32	Z32	X33	Y33	Z33	X34	Y34	Z34	X35	Y35	Z35	X36	Y36	Z36	X37	Y37	Z37	X38	Y38	Z38	X39	Y39	Z39	X40	Y40	Z40	X41	Y41	Z41	X42	Y42	Z42	X43	Y43	Z43	X44	Y44	Z44	X45	Y45	Z45	X46	Y46	Z46	X47	Y47	Z47	X48	Y48	Z48	X49	Y49	Z49	X50	Y50	Z50	X51	Y51	Z51	

706	7.05000000	-238.28434	471.05336	-422.43762	-234.32208	401.25600	-393.98060	-266.87073	95.57827	-410.50320	-331.58544	58.01316	-449.70400	-168.07441	45.25373	-368.05295	-120.32757	64.24016	-420.22857	-252.83899	467.61119	-756.04959	-226.14450	408.14658	-769.98961	-255.21782	96.69189	-781.62268	-322.19191	59.67369	-734.72752	-164.22531	42.56825	-817.33903	-112.12453	64.82669	-764.72807	-241.26955	288.97119	-380.49575	-305.71445	402.31828	-415.33483	-319.79785	287.21764	-407.08522	-315.15873	414.78622	-780.21185	-308.79569	293.71747	-796.12217	-177.44654	777.38685	-444.89959	-170.58433	667.18943	-426.00864	-221.11077	645.09182	-388.51845	-278.81696	779.25406	-392.75852	-275.93721	661.62717	-394.26573	-187.78873	749.90417	-768.24394	-185.76589	611.47739	-766.88461	-305.01430	749.50014	-775.55576	-294.07847	608.41481	-775.97323	-187.75992	921.67352	-463.56786	-366.12979	943.48296	-544.84507	-175.52292	913.43622	-722.00244	-365.01475	937.43884	-651.83114	-289.72949	1403.65916	-582.01546	-223.64334	1354.10987	-430.04629	-225.34216	1361.59612	-748.53971	-166.46739	1325.80833	-566.92060	-167.09056	1326.51740	-611.55993	-252.86093	1125.53920	-340.27080	-295.34811	1020.68198	-395.27335	-277.29900	1046.56095	-320.87992	-167.58292	1068.10611	-356.48760	-70.07377	1087.64830	-404.11390	-60.02809	1043.94664	-400.33908	-208.02502	1233.79690	-806.37128	-290.54537	1025.66978	-771.38198	-284.37757	1038.38578	-844.91817	-172.58867	1063.56860	-826.05898	-68.32659	1088.70148	-777.05560	-57.62159	1052.80574	-780.06668	-254.13900	847.71008	-492.42254	-243.13126	844.11955	-692.37997	-249.31465	843.17542	-496.41543	-247.53710	833.54138	-666.97772	
707	7.06000000	-238.56312	471.05282	-422.36597	-234.55110	401.19015	-393.92905	-266.85834	95.55810	-410.50112	-331.60629	57.98919	-449.70104	-168.05299	45.20865	-368.05651	-120.28069	64.18056	-420.23228	-253.01795	467.52085	-756.11000	-226.21851	408.10458	-770.02000	-255.20418	96.66956	-781.60486	-322.18550	59.61998	-734.73850	-164.21572	42.48038	-817.34403	-112.10113	64.79622	-764.72790	-241.41862	288.92921	-380.47907	-305.99860	402.17178	-415.16210	-319.86339	287.08471	-406.89974	-315.23662	414.71383	-780.38145	-308.90609	293.57380	-796.16749	-178.08320	777.30744	-445.07887	-171.17314	667.22737	-426.08378	-221.64438	645.01484	-388.52572	-279.58618	779.06740	-392.84690	-276.53787	661.53010	-394.05965	-188.53959	750.02852	-768.50209	-186.30549	611.31137	-766.67595	-305.67520	749.21387	-775.32227	-294.53336	608.24297	-775.99588	-188.67413	921.42344	-463.71413	-366.98864	943.57947	-544.79584	-176.36355	913.29253	-721.86476	-365.82169	937.18129	-652.07847	-289.37094	1403.70229	-581.82278	-223.19801	1353.80721	-429.77905	-225.36399	1361.29257	-748.31871	-166.43704	1325.36162	-566.89861	-167.10453	1326.17108	-611.48346	-252.67427	1125.09500	-340.02450	-295.19590	1020.46452	-395.13109	-277.24473	1046.17273	-320.67148	-167.47512	1067.53772	-356.25578	-69.73432	1087.02333	-403.91024	-59.98713	1043.42478	-400.22978	-208.25891	1233.59195	-806.33761	-290.55946	1025.27777	-771.63790	-284.60144	1038.26049	-845.09157	-172.81419	1063.53309	-826.31159	-68.56540	1088.40941	-776.97620	-57.75423	1052.61440	-780.62202	-255.09099	847.57071	-492.45646	-243.99891	843.95024	-692.40871	-250.47050	843.57159	-496.32856	-248.61763	833.41198	-666.67379	
708	7.07000000	-238.94890	471.01354	-422.34352	-234.71954	401.11302	-393.91610	-266.85527	95.54121	-410.51034	-331.62594	57.94062	-449.68934	-168.03383	45.22950	-368.03051	-120.25193	64.12010	-420.24844	-253.22919	467.38913	-756.15841	-226.33087	408.04675	-770.00665	-255.18413	96.63750	-781.61841	-322.19109	59.56476	-734.76929	-164.22684	42.41659	-817.37211	-112.08214	64.75535	-764.74481	-241.56664	288.73636	-380.44169	-306.22485	402.03232	-414.99120	-319.94739	286.88923	-406.73758	-315.33396	414.67657	-780.60250	-308.95866	293.39339	-796.23259	-178.76578	777.27515	-445.34288	-171.87993	667.21363	-426.10397	-222.34039	644.91221	-388.56882	-280.41398	778.93881	-392.75291	-277.19244	661.39979	-393.91838	-189.38932	750.07495	-768.51024	-186.75476	611.18000	-766.53098	-306.29673	749.00355	-775.26278	-295.05681	608.08857	-776.10932	-189.65677	921.28728	-463.63505	-367.93088	943.61713	-544.77764	-177.25930	913.21072	-721.63740	-366.71369	937.29881	-652.30742	-289.04541	1403.69221	-581.63757	-222.78450	1353.44338	-429.43077	-225.31351	1360.97878	-748.13014	-166.43229	1324.91451	-566.83999	-167.11446	1325.76746	-611.45654	-252.51579	1124.74817	-339.74840	-295.28461	1020.17048	-394.78137	-277.27147	1045.86493	-320.58696	-167.36720	1066.91554	-356.13501	-69.50903	1086.12852	-403.70026	-59.94127	1042.64772	-400.06981	-208.40908	1233.29062	-806.17565	-290.98492	1024.96335	-771.79403	-284.92884	1038.12329	-845.18739	-173.12796	1063.34273	-826.44416	-68.82155	1087.87207	-776.92757	-57.97632	1052.25429	-781.14445	-256.19348	847.50653	-492.43820	-244.92787	843.93045	-692.38148	-251.49236	843.45672	-496.32344	-249.56511	833.45159	-666.58023	
709	7.08000000	-239.36759	470.92158	-422.39192	-234.92762	401.13162	-393.90245	-266.86832	95.53636	-410.49552	-331.62133	57.91003	-449.69000	-168.02838	45.25905	-368.00646	-120.25614	64.07391	-420.28821	-253.45654	467.30397	-756.28857	-226.46424	407.97935	-769.93776	-255.16585	96.58986	-781.64087	-322.19232	59.52222	-734.81849	-164.24422	42.37059	-817.40909	-112.07171	64.71099	-764.76315	-241.76006	288.67230	-380.44849	-306.51484	401.99720	-414.91488	-320.12680	286.73414	-406.68171	-315.42340	414.59585	-780.80637	-308.92933	293.20277	-796.35655	-179.69187	777.27090	-445.49001	-172.57564	667.02241	-426.17342	-223.20026	644.88027	-388.62783	-281.34027	778.82322	-392.69522	-277.93743	661.19728	-393.94885	-190.20246	749.94825	-768.13590	-187.04594	611.11938	-766.48628	-306.98307	748.79138	-775.35758	-295.56913	607.95485	-776.31020	-190.73550	921.18050	-463.51007	-368.93899	943.63307	-544.90922	-178.25961	913.13734	-721.55436	-367.70067	937.56376	-652.61191	-288.70497	1403.63149	-581.32179	-222.36654	1353.09645	-429.09565	-225.21291	1360.70889	-748.00364	-166.41420	1324.48886	-566.73356	-167.11481	1325.28984	-611.40209	-252.32683	1124.46972	-339.62647	-295.69811	1019.74668	-394.32829	-277.35315	1045.65540	-320.54974	-167.32031	1066.28540	-356.05929	-69.47221	1085.01611	-403.43983	-60.02226	1041.24956	-399.65031	-208.50330	1232.92631	-805.92279	-291.57852	1024.76917	-771.98799	-285.35567	1038.00789	-845.28293	-173.54453	1063.01637	-826.52693	-69.14129	1087.14384	-776.91642	-58.32286	1051.64513	-781.47139	-257.42035	847.46216	-492.51158	-245.95687	843.95915	-692.44490	-252.52945	843.10519	-496.39313	-250.57138	833.50799	-666.70222	
